<svg width="54" height="66" viewBox="0 0 54 66" fill="none" xmlns="http://www.w3.org/2000/svg">
<path d="M10.142 24H7.34659L13.6278 6.54545H16.6705L22.9517 24H20.1562L15.2216 9.71591H15.0852L10.142 24ZM10.6108 17.1648H19.679V19.3807H10.6108V17.1648ZM28.8047 0.920454V29.625H26.5206V0.920454H28.8047ZM33.6989 24V6.54545H39.9205C41.2727 6.54545 42.3949 6.77841 43.2869 7.24432C44.1847 7.71023 44.8551 8.35511 45.2983 9.17898C45.7415 9.99716 45.9631 10.9432 45.9631 12.017C45.9631 13.0852 45.7386 14.0256 45.2898 14.8381C44.8466 15.6449 44.1761 16.2727 43.2784 16.7216C42.3864 17.1705 41.2642 17.3949 39.9119 17.3949H35.1989V15.1278H39.6733C40.5256 15.1278 41.2188 15.0057 41.7528 14.7614C42.2926 14.517 42.6875 14.1619 42.9375 13.696C43.1875 13.2301 43.3125 12.6705 43.3125 12.017C43.3125 11.358 43.1847 10.7869 42.929 10.304C42.679 9.82102 42.2841 9.4517 41.7443 9.19602C41.2102 8.93466 40.5085 8.80398 39.6392 8.80398H36.3324V24H33.6989ZM42.3153 16.125L46.6278 24H43.6278L39.4006 16.125H42.3153ZM0.56978 30.8182H2.43413L5.6756 38.733H5.79492L9.0364 30.8182H10.9007V41H9.4391V33.6321H9.34464L6.3418 40.9851H5.12873L2.12589 33.6271H2.03143V41H0.56978V30.8182ZM13.1342 30.8182H14.9986L18.2401 38.733H18.3594L21.6009 30.8182H23.4652V41H22.0036V33.6321H21.9091L18.9062 40.9851H17.6932L14.6903 33.6271H14.5959V41H13.1342V30.8182ZM26.7676 30.8182L29.2037 34.8004H29.2832L31.7193 30.8182H33.4991L30.3272 35.9091L33.519 41H31.7292L29.2832 37.0724H29.2037L26.7576 41H24.9679L28.2143 35.9091L24.9877 30.8182H26.7676ZM36.0918 30.8182L38.5279 34.8004H38.6074L41.0435 30.8182H42.8233L39.6515 35.9091L42.8432 41H41.0534L38.6074 37.0724H38.5279L36.0819 41H34.2921L37.5385 35.9091L34.312 30.8182H36.0918ZM45.8833 30.8182V41H44.3471V30.8182H45.8833ZM49.6568 30.8182V41H48.1206V30.8182H49.6568ZM53.4302 30.8182V41H51.894V30.8182H53.4302ZM22.0962 56.2727C22.0962 55.358 22.3207 54.5227 22.7695 53.767C23.2184 53.0114 23.8178 52.4119 24.5678 51.9688C25.3235 51.5199 26.1587 51.2955 27.0735 51.2955C27.869 51.2955 28.6048 51.4687 29.2809 51.8153C29.957 52.1562 30.5167 52.625 30.9599 53.2216C31.4031 53.8182 31.6729 54.4886 31.7695 55.233H29.5536C29.4514 54.7045 29.1616 54.2727 28.6843 53.9375C28.2127 53.5966 27.6758 53.4261 27.0735 53.4261C26.5508 53.4261 26.0735 53.554 25.6417 53.8097C25.2099 54.0653 24.8661 54.4091 24.6104 54.8409C24.3548 55.267 24.2269 55.7443 24.2269 56.2727C24.2269 56.7955 24.3548 57.2727 24.6104 57.7045C24.8661 58.1364 25.2099 58.4801 25.6417 58.7358C26.0735 58.9915 26.5508 59.1193 27.0735 59.1193C27.6758 59.1193 28.19 58.9517 28.6161 58.6165C29.0423 58.2756 29.3093 57.8409 29.4173 57.3125H31.6332C31.5366 58.0568 31.2781 58.7273 30.8576 59.3239C30.4371 59.9205 29.9002 60.392 29.2468 60.7386C28.5934 61.0795 27.869 61.25 27.0735 61.25C26.1587 61.25 25.3235 61.0284 24.5678 60.5852C23.8178 60.1364 23.2184 59.5341 22.7695 58.7784C22.3207 58.0227 22.0962 57.1875 22.0962 56.2727ZM26.9968 65.2727C25.7582 65.2727 24.5934 65.0398 23.5025 64.5739C22.4173 64.108 21.4599 63.4631 20.6303 62.6392C19.8065 61.8097 19.1587 60.8523 18.6871 59.767C18.2212 58.6818 17.9911 57.517 17.9968 56.2727C18.0025 55.0284 18.2383 53.8636 18.7042 52.7784C19.1758 51.6932 19.8235 50.7386 20.6474 49.9148C21.4712 49.0852 22.4258 48.4375 23.511 47.9716C24.5962 47.5057 25.7582 47.2727 26.9968 47.2727C28.2411 47.2727 29.4059 47.5057 30.4911 47.9716C31.582 48.4375 32.5366 49.0852 33.3548 49.9148C34.1786 50.7386 34.8235 51.6932 35.2894 52.7784C35.7553 53.8636 35.9911 55.0284 35.9968 56.2727C36.0025 57.517 35.7724 58.6818 35.3065 59.767C34.8406 60.8523 34.1957 61.8097 33.3718 62.6392C32.5479 63.4631 31.5906 64.108 30.4996 64.5739C29.4087 65.0398 28.2411 65.2727 26.9968 65.2727ZM26.9968 63.0057C27.9286 63.0057 28.8036 62.8324 29.6218 62.4858C30.44 62.1392 31.1559 61.6591 31.7695 61.0455C32.3889 60.4261 32.8718 59.7102 33.2184 58.8977C33.565 58.0795 33.7354 57.2074 33.7298 56.2812C33.7298 55.3494 33.5536 54.4744 33.2014 53.6562C32.8548 52.8381 32.3718 52.1222 31.7525 51.5085C31.1388 50.8892 30.4258 50.4062 29.6133 50.0597C28.8008 49.7131 27.9286 49.5398 26.9968 49.5398C26.0707 49.5398 25.2013 49.7131 24.3888 50.0597C23.5763 50.4062 22.8604 50.8892 22.2411 51.5085C21.6275 52.1278 21.1445 52.8466 20.7923 53.6648C20.44 54.4773 20.2638 55.3494 20.2638 56.2812C20.2582 57.2017 20.4286 58.071 20.7752 58.8892C21.1275 59.7017 21.6104 60.4176 22.2241 61.0369C22.8434 61.6506 23.5593 62.1335 24.3718 62.4858C25.19 62.8324 26.065 63.0057 26.9968 63.0057Z" fill="white"/>
</svg>
